/* XPM */
static char *_b4a089bc92142d388e60942826ee076DbvGzbrq9vGzZQJO[] = {
/* columns rows colors chars-per-pixel */
"64 64 197 2 ",
"   c #000000",
".  c #080707",
"X  c #080807",
"o  c #0A0A09",
"O  c #0E1112",
"+  c #121415",
"@  c #181817",
"#  c #151719",
"$  c #171A1B",
"%  c #1B1C1B",
"&  c #1E2222",
"*  c #212424",
"=  c #232728",
"-  c #262B2C",
";  c #2A2C2D",
":  c #2C302D",
">  c #3E3E2A",
",  c #292E31",
"<  c #2D3233",
"1  c #2F3639",
"2  c #313435",
"3  c #313638",
"4  c #34393B",
"5  c #3C3E3D",
"6  c #5C5B21",
"7  c #494934",
"8  c #4F513B",
"9  c #50513C",
"0  c #6B723B",
"q  c #4A4E4B",
"w  c #4C514E",
"e  c #535542",
"r  c #545946",
"t  c #545B48",
"y  c #5A5E4B",
"u  c #474F50",
"i  c #4C5354",
"p  c #4D5558",
"a  c #585B57",
"s  c #555C5F",
"d  c #5F6250",
"f  c #5D625B",
"g  c #61665A",
"h  c #666B5A",
"j  c #67725F",
"k  c #757F51",
"l  c #5A5F62",
"z  c #5D6265",
"x  c #616566",
"c  c #656C65",
"v  c #636769",
"b  c #656A6D",
"n  c #686D6D",
"m  c #6C7262",
"M  c #6D736B",
"N  c #6D7A69",
"B  c #717766",
"V  c #727A66",
"C  c #737C6A",
"Z  c #666E71",
"A  c #6A6E71",
"S  c #6B7274",
"D  c #6C7578",
"F  c #747C73",
"G  c #767B74",
"H  c #747C7E",
"J  c #7A8766",
"K  c #76826D",
"L  c #79826E",
"P  c #768173",
"I  c #7D8574",
"U  c #7F8873",
"Y  c #75827B",
"T  c #7C867A",
"R  c #7E8A7D",
"E  c #838D6E",
"W  c #84916A",
"Q  c #89956C",
"!  c #808675",
"~  c #838C75",
"^  c #80837E",
"/  c #838B7B",
"(  c #898C7B",
")  c #859171",
"_  c #8A9574",
"`  c #8E9976",
"'  c #87917F",
"]  c #88907F",
"[  c #8E9978",
"{  c #919C7A",
"}  c #7A7F81",
"|  c #7B8583",
" . c #778884",
".. c #7C8B84",
"X. c #7E8D8B",
"o. c #7F918E",
"O. c #7D9090",
"+. c #828683",
"@. c #848C83",
"#. c #8A8F80",
"$. c #848B8C",
"%. c #8C8E8E",
"&. c #869284",
"*. c #8C9484",
"=. c #83928B",
"-. c #8B948C",
";. c #8D9A8C",
":. c #919789",
">. c #939A8C",
",. c #858E92",
"<. c #8D8F90",
"1. c #859494",
"2. c #8B9494",
"3. c #869995",
"4. c #8C9A95",
"5. c #86979C",
"6. c #8B979A",
"7. c #8C9B9D",
"8. c #929694",
"9. c #949D92",
"0. c #9A9F92",
"q. c #90969A",
"w. c #929C9C",
"e. c #999D9C",
"r. c #8FA09F",
"t. c #95A195",
"y. c #9BA196",
"u. c #94A39C",
"i. c #9CA49B",
"p. c #9DA99F",
"a. c #A1A79B",
"s. c #A0A79D",
"d. c #A2A99E",
"f. c #8D9CA1",
"g. c #919EA4",
"h. c #8DA0A1",
"j. c #94A3A5",
"k. c #9AA4A5",
"l. c #97A9A5",
"z. c #9DA9A2",
"x. c #9CAAA5",
"c. c #95A5A9",
"v. c #9BA6AA",
"b. c #97A9AB",
"n. c #9DAAAD",
"m. c #9EADB1",
"M. c #9FB0B3",
"N. c #A1A6A5",
"B. c #A2ACA3",
"V. c #A8AEA5",
"C. c #A1A7A9",
"Z. c #A3ABAC",
"A. c #A9AEAC",
"S. c #A9B0A6",
"D. c #A1B2AD",
"F. c #A4B2AC",
"G. c #ACB3AB",
"H. c #B0B6AE",
"J. c #A2ADB2",
"K. c #AAAFB1",
"L. c #A5B5B2",
"P. c #A4B2B4",
"I. c #AAB3B5",
"U. c #A7B8B5",
"Y. c #ABB9B5",
"T. c #A5B5B9",
"R. c #ACB6BA",
"E. c #ACBABC",
"W. c #B1B6B1",
"Q. c #B4BAB4",
"!. c #B9BEB7",
"~. c #B1B6BA",
"^. c #B2BABD",
"/. c #BABEBB",
"(. c #AFC0BE",
"). c #B4C1BE",
"_. c #BDC1BE",
"`. c #AEBCC1",
"'. c #B5BDC3",
"]. c #B9BEC3",
"[. c #AFC0C1",
"{. c #B5C1C5",
"}. c #BBC3C5",
"|. c #BCC8C7",
" X c #B6C2C9",
".X c #BAC3C9",
"XX c #B7C8C9",
"oX c #BCCACB",
"OX c #BECED0",
"+X c #C2C5C5",
"@X c #C3C6C9",
"#X c #C5C9CC",
"$X c #C3D0CE",
"%X c #C0CED1",
"&X c #C5D2D3",
"*X c #C7D6D8",
"=X c #CCDADC",
/* pixels */
"K C K K K L L I U U U U ~ ~ ~ U L C L I I L U ! ! ! U ! I U L L I U I I I I I I I I T T T T T R R R ..........=.=.=.3.3.3.3...P ",
"V j N V V V V V V V V V C C C m m m B C B B B V C C C I I I I m I / / / I U I I I I / / / / / @.@.&.&.-.-.3.4.4.u.u.D.U.L.D.=.@.",
"K V / / ' / ~ / / / / ' ] *.*./ I ! / ( / / / *.*.*.*.y.y.y.y.( >.y.y.y.>.>.>.>.>.9.9.9.t.t.y.i.p.p.z.x.x.n.F.D.P.L.{.|.{.(.4.&.",
"I P *.*.;.&.' ' *.*.*.*.*.*.*.*./ / / / / #.*.:.:.>.>.y.i.y.i.( >.i.i.y.9.9.9.9.9.9.y.y.y.p.p.z.z.x.B.F.F.D.L.L.U.T.oXoXXX{.u.&.",
"R T ;.;.;.*.*.*.*.*.*.*.>.>.>.>.*.*.*.*.*.:.>.>.>.>.0.i.a.a.d.#.0.s.a.a.i.y.y.y.y.i.i.i.z.z.N.B.Z.F.F.L.L.U.U.T.E.E.|.%XOX|.u.&.",
"&.R >.9.9.>.>.>.>.>.>.>.>.>.9.9.9.>.>.>.9.0.0.0.0.y.y.d.B.B.B.#.y.B.B.B.s.i.i.i.p.B.B.B.B.Z.F.F.F.L.L.U.U.R.E.E.(.{.|.&X&XoXk.-.",
";.&.t.y.y.9.9.9.9.9.9.9.y.y.y.y.y.y.y.y.y.y.i.i.i.i.i.B.S.S.S.*.i.V.S.S.B.i.d.B.B.B.B.B.A.F.F.F.L.L.U.Y.E.E.E.(.[.{.oX&X*X#Xz.&.",
";.&.i.p.i.9.T P F F F F F M M M M M n c c x g f f f *.S.G.G.G.-.d.G.G.G.z.a q q q w w w w i i i i i p p p p p p p 7.*X*X*X&Xx.;.",
"t.;.p.B.B.2.* o o o o o . . . . .                 . G H.H.H.W.-.B.G.H.Q.i.@                                       D *X*X=X&XZ.;.",
"i.4.B.V.B.4.%                                     . G Q.Q.Q.Q.8.V.Q.Q.Q.N.@                                       H =X*X=X&XF.;.",
"z.9.F.F.F.w.%                                     . G Q.Q.Q.Q.9.S.Q.Q.!.N.%                                       H =X=X=X&XD.;.",
"B.u.G.G.G.u.&                                     . T !.!.!.!.e.G.!.!._.C.%                                       H =X=X=X&XF.t.",
"F.u.Y.Y.Y.k.&                                     . ^ _./././.e.H.!._._.A.%                                       H =X=X=X&XF.;.",
"F.u.Y.Y.Y.x.*                                     . +._._._._.i.W._._.}.A.%                                       H =X=X=X&XF.;.",
"L.z.Y.^.^.x.*                                     . +.+X}.+X}.i.Q.}.}.+XA.%                                       H =X=X=X&XF.-.",
"L.x.Q.^.^.Z.*                                     . @.+X+X+X+Xk.Q.+X+X+XI.%                                       H =X=X=X&XF.;.",
"Y.n./.{./.P.=                                     o 8.+X+X+X+XN./.+X+X@XI.%                                       H =X=X=X$XL.9.",
"^.Z.).}.}.P.-                                     o 8.#X+X+X+XN.!.+X+X#XW.%                                       H =X=X=X#XL.>.",
").D.{.}.}.I.-                                     X -.#X@X@X@XN./.+X@X#XI.%                                       H =X*X=X#XL.;.",
").P.}..X}.R.-                                     o 2.#X#X#X@XN./.@X@X#XI.%                                       H *X*X*XoXL.-.",
").P.}..X}.R.;                                     X 2.#X#X#X@XN./.@X@X#XI.@                                       H *X*X*X|.P.-.",
").P..X.X.XR.,                                     X -.#X#X#X@XN./.@X@X#XI.@                                       H *X*X*X.XD.&.",
"{.P..X.X.XE.<                                     X %.#X@X@X+XN./.@X@X#XI.@                                       D oX%X&X}.D.&.",
"}.R..X|..XE.<                                     X <.#X@X@X+XC./.@X@X#XI.@                                       Z  X|.%X{.Z.#.",
"}.P..X|..X`.<                                     X <.#X@X@X+XC.].+X@X#XK.@                                       Z  X.XoX^.n.#.",
".XR..X.X.XE.1                                     X %.#X@X@X+XZ.].+X+X#XK.@                                       S |..X|.R.n.@.",
"|.T.{..X.X`.1                                     . %.#X@X+X}.Z.].+X+X#XK.@                                       S .X{. XU.x./ ",
"|.T.{..X.X'.3                                     . %.#X+X].}.C./.^.}.#XA.@                                       S {.{.{.L.x.R ",
"|.T. X.X.X'.4                                     X %.@XI.J./.k.I.C.^.@XA.@                                       Z {.[.[.D.j.R ",
"|.T. X X X`.4                                     . <.}.I.I.~.e.A.Z.R..XZ.+                                       b `.E.E.n.j.R ",
"|.T.'. X X'.s - : : : ; ; ; ; ; < < < ; < 2 2 2 2 4 e.].C.q.^.e.A.w.J.|.K.5 ; ; ; ; ; ; ; ; ; - - - - - - - - - - H E.T.T.n.j.T ",
"|.T.'..X X'.R.P.I.I.I.P.I.I.I.I.I.I.I.I.I.R.~.~.~.~.^.^.Z.6.~.e.A.q.J.}.].~.~.~.~.R.R.R.R.R.R.R.R.R.R.R.R.R.R.R.R.E.T.T.T.x.u.T ",
"|.T.'. X X X X X X X'.'.'.'.'.'.'.'.'.'.].].].}.}.}.].^.C.6.~.e.A.2.C.].}.}..X.X.X.X.X.X.X.X.X.X.X.X.X.X.X.X X X X{.P.P.P.j.r.T ",
"|.T.'. X X X X X X X'. X'.'.'.'.'.'.'.'.].].].}.}.}.].^.N.2.R.w.A.2.$.w.].}.}..X.X}..X}..X.X.X.X.X.X.X X X X X X X`.M.M.M.j.7.T ",
"|.T.`. X{. X X X X X'.'.'.'.'.'.'.'.'.'.'.].].].].].'.^.k.2.I.q.C.-.w.Z.]..X}.}.}..X.X.X}..X X X X X X X X X{.{.{.E.m.m.n.r.7.P ",
"|.T.E. X'.'. X X X X'.'.'.'.'.'.'.'.'.'.'.].].].].].'.~.k.$.I.8.C.%.v.'.]..X.X.X.X.X.X.X.X.X.X.X X X X X X X X X{.T.n.b.b.7.6.F ",
".XT.E.'.'.`.,.Z Z Z Z Z n n b n n n n n n n Z Z Z A w.~.k.$.K.8.N.$.k.'.J.Z b b b b b b b b b b b b b b b b b b D n.b.b.c.6.2.C ",
".XT.T.'.`.`.i                                       v ^.i.$.K.6.N.@.j.'.q.o                                     & f.c.c.j.3.3.C ",
".XT.R.'.`.`.i                                       v ^.e.$.K.6.N.+.k.'.q.o                                     & f.j.j.j.3.3.N ",
".XT.R.`.`.`.i                                       v ^.Z.e.I.q.A.k.I.}.6.o                                     & f.j.j.f.3.1.m ",
".XT.T.`.`.`.p                                       v '.'.^.~.w.R.'.].}.q.o                                     & 7.f.f.f.1.1.m ",
".XT.P.`.E.`.p                                       v '.^.^.~.w.I.'.'.'.2.o                                     & 7.f.f.7.1.1.m ",
"{.T.P.E.E.E.p                                       v '.^.^.R.q.I.^.'.'.2.o                                     & 6.f.7.7.1.1.h ",
"{.T.P.E.E.E.p                                       x '.^.^.R.q.I.^.'.'.2.o                                     & 6.f.7.7.o.=.h ",
"{.T.P.E.E.E.p                                       x ^.^.^.~.q.I.^.^.'.2.o                                     * 6.7.7.7.=.X.g ",
"{.T.P.E.E.E.p                                       x ^.^.E.R.q.I.^.^.'.<.o                                     & 6.7.7.6.=...d ",
"{.T.J.E.T.E.p                                       z ^.R.R.R.q.I.E.E.^.$.o                                     * 6.7.7.6.X...y ",
").T.m.T.R.T.p                                       z E.R.R.R.6.I.E.E.^.$.o                                     * 6.7.7.6.X...y ",
"E.T.m.T.T.T.p                                       z E.R.R.R.6.I.R.R.E.$.X                                     * 6.w.7.7.o...y ",
"E.P.x.T.R.R.i                                       z R.R.R.I.6.I.R.R.R.$.X                                     & 6.w.7.6.....t ",
"E.m.l.P.P.T.i                                       z R.I.I.I.6.J.R.R.R.+.X                                     & 2.w.7.4.....t ",
"T.M.l.P.P.P.i                                       z R.I.I.P.2.J.I.I.R.| .                                     & 2.w.w.4.X.| r ",
"U.m.j.P.P.P.i                                       l I.P.I.J.2.J.I.I.I.| .                                     & 2.w.w.4.X.| r ",
"U.m.j.P.P.P.i                                       l I.J.J.J.2.J.I.P.I.} .                                     & 2.w.7.4...| e ",
"L.n.j.P.P.P.i                                       l J.J.J.J.1.Z.J.J.P.H .                                     & 2.w.7.2...T e ",
"L.b.j.J.J.P.u                                       s J.J.J.J.,.n.J.J.J.H .                                     & 2.w.7.2...Y 9 ",
"D.b.j.m.m.m.Z 1 3 3 3 3 3 3 3 3 3 3 3 3 3 3 < < < < D J.J.J.n.,.v.J.J.J.| & $ $ $ $ # # + + + + + + + + + + + O < 2.w.7.2...Y 9 ",
"D.b.j.n.m.m.n.n.m.m.m.n.n.n.n.n.n.n.n.n.n.n.n.n.n.n.m.Z.Z.Z.v.$.v.Z.Z.Z.n.g.g.g.g.g.f.7.7.6.6.6.3.3.3.1.3.3.1.1.3.w.w.7.2...Y 8 ",
"n.c.j.n.n.m.M.M.P.P.P.J.J.J.J.J.J.J.Z.Z.J.J.J.J.J.J.J.n.v.v.v.$.k.x.v.n.J.P.P.J.P.P.J.J.J.J.J.J.J.J.Z.J.Z.Z.n.n.x.e.7.4.=...Y 9 ",
"x.j.f.n.n.n.P.P.P.J.J.m.m.n.m.J.n.n.n.n.n.n.n.n.Z.m.n.v.v.v.k.X.k.v.v.v.J.J.J.J.J.J.Z.n.n.n.n.n.n.n.n.n.x.x.x.x.k.w.4.4.=...F 8 ",
"l.h.7.b.n.n.m.m.n.n.n.n.n.n.v.v.v.v.v.v.v.v.v.v.v.v.v.v.v.v.k.X.k.k.k.k.v.n.x.v.v.v.v.v.v.k.v.v.k.k.k.v.v.v.k.k.k.w.4.3.=. .F 7 ",
"j.7.7.b.b.n.n.n.n.n.n.c.l.v.v.v.v.v.v.v.v.v.v.n.v.n.n.n.v.v.v.$.k.x.v.v.m.n.l.v.v.v.v.v.c.c.c.k.c.c.c.c.c.c.j.j.j.7.4.3.X.Y M 7 ",
"7.O. .3.5.7.7.7.7.7.7.5.f.f.f.f.7.7.5.5.6.5.5.5.5.f.7.5.f.f.f.X.7.f.f.f.g.g.g.g.g.g.g.f.j.j.c.c.c.c.c.j.c.b.b.n.b.c.j.f.1.Y c > ",
"Q W J W W _ ` ` ` ` ` [ { { { { { { ` ` ` ` ` [ [ ` ` _ _ ) _ _ ` _ ) ) ) ~ ~ ) E E E E E ) ) ) ) ) ) ) ) _ _ _ _ _ _ Q Q k 0 6 "
};
